<svg width="80" height="80" viewBox="0 0 80 80" fill="none" xmlns="http://www.w3.org/2000/svg"><g clip-path="url(#clip0_3187_37871)"><path d="M80 0H0V80H80V0z" fill="url(#paint0_linear_3187_37871)"/><path d="M59.125 22.5625s0 0-.0938000000000017.0C55.4688 20.875 51.7188 19.75 47.875 19.0938 47.7812 19 47.6875 19.0938 47.6875 19.0938 47.125 20.0312 46.6562 21.0625 46.2812 22 42.0625 21.3438 37.8438 21.3438 33.625 22 33.25 21.0625 32.7812 20.0312 32.2188 19.0938 32.2188 19.0938 32.125 19 32.0312 19.0938 28.1875 19.75 24.4375 20.875 20.875 22.5625H20.7812C13.6562 33.25 11.6875 43.6562 12.625 53.9688 12.625 53.9688 12.625 54.0625 12.7188 54.0625 16.8438 57.1562 21.5312 59.5 26.5 61 26.5 61.0938 26.5938 61 26.6875 61c1.0313-1.5 1.9687-3 2.8125-4.5938C29.5 56.3125 29.5 56.2188 29.4062 56.125c-1.5-.5625-3-1.2188-4.3124-2.0625C25 54.0625 24.9062 53.875 25.0938 53.7812 25.375 53.5938 25.6562 53.4062 25.9375 53.125c0 0 .0936999999999983.0.1875.0 9 4.125 18.75 4.125 27.6562.0C53.875 53.125 53.875 53.125 53.9688 53.125 54.25 53.4062 54.5312 53.5938 54.8125 53.7812 54.9062 53.875 54.9062 54.0625 54.8125 54.0625 53.4062 54.9062 52 55.5625 50.5 56.125 50.4062 56.2188 50.4062 56.3125 50.4062 56.4062 51.25 58 52.1875 59.5 53.2188 61 53.3125 61 53.3125 61.0938 53.4062 61c4.9688-1.5 9.6563-3.8438 13.7813-6.9375C67.2812 54.0625 67.2812 53.9688 67.2812 53.9688c1.125-11.9063-1.9687-22.2188-8.1562-31.4063zM30.8125 47.6875c-2.7187.0-4.9687-2.5313-4.9687-5.5313.0-3.0937 2.25-5.5312 4.9687-5.5312 2.8125.0 4.9687 2.4375 4.9687 5.5312.0 3-2.25 5.5313-4.9687 5.5313zm18.2813.0c-2.7188.0-4.875-2.5313-4.875-5.5313.0-3.0937 2.1562-5.5312 4.875-5.5312 2.8124.0 5.0624 2.4375 4.9687 5.5312.0 3-2.1563 5.5313-4.9687 5.5313z" fill="#fff"/></g><defs><linearGradient id="paint0_linear_3187_37871" x1="80" y1="0" x2="0" y2="80" gradientUnits="userSpaceOnUse"><stop stop-color="#5865f2"/><stop offset="1" stop-color="#3e48c2"/></linearGradient><clipPath id="clip0_3187_37871"><rect width="80" height="80" fill="#fff"/></clipPath></defs></svg>