<svg width="80" height="80" viewBox="0 0 80 80" fill="none" xmlns="http://www.w3.org/2000/svg"><g clip-path="url(#clip0_3187_37805)"><path d="M80 0H0V80H80V0z" fill="url(#paint0_linear_3187_37805)"/><path d="M68.4062 28.8438 41.875 19.375C40.5625 18.9062 39.1562 18.9062 37.8438 19.375L11.5 28.8438C10.5625 29.2188 10 30.0625 10 31c0 1.0312.5625 1.875 1.5 2.25l5.625 1.9688c-1.125 1.5-1.9688 3.1874-2.3438 5.0624C13.75 40.75 13 41.7812 13 43c0 .9375.375 1.7812 1.0312 2.3438l-2.25 13.9687C11.5938 60.25 12.3438 61 13.1875 61h5.5313C19.5625 61 20.3125 60.25 20.125 59.3125l-2.25-13.9687C18.5312 44.7812 19 43.9375 19 43s-.5625-1.7812-1.2188-2.25c.375-1.6875 1.2188-3.1875 2.3438-4.4062l17.8125 6.375C39.25 43.1875 40.6562 43.1875 41.9688 42.7188L68.4062 33.25C69.3438 32.875 70 32.0312 70 31 70 30.0625 69.3438 29.2188 68.4062 28.8438zm-25.5 16.6874C41.9688 45.9062 40.9375 46 40 46 38.9688 46 37.9375 45.9062 37 45.5312l-13.6875-4.875L22 54.0625C22 57.9062 29.9688 61 40 61c9.8438.0 18-3.0938 18-6.9375L56.5938 40.6562l-13.6876 4.875z" fill="#fff"/></g><defs><linearGradient id="paint0_linear_3187_37805" x1="80" y1="0" x2="0" y2="80" gradientUnits="userSpaceOnUse"><stop stop-color="#7737df"/><stop offset="1" stop-color="#551cb4"/></linearGradient><clipPath id="clip0_3187_37805"><rect width="80" height="80" fill="#fff"/></clipPath></defs></svg>