<svg width="80" height="80" viewBox="0 0 80 80" fill="none" xmlns="http://www.w3.org/2000/svg"><g clip-path="url(#clip0_3187_37876)"><path d="M80 0H0V80H80V0z" fill="url(#paint0_linear_3187_37876)"/><path d="M40 16.75c-12.8438.0-23.25 10.5-23.25 23.25.0 12.8438 10.4062 23.25 23.25 23.25 12.75.0 23.25-10.4062 23.25-23.25.0-12.75-10.5-23.25-23.25-23.25zM50.6875 32.5938C50.4062 36.25 48.9062 45.25 48.0625 49.2812 47.7812 51.0625 47.125 51.625 46.4688 51.7188 45.1562 51.8125 44.125 50.7812 42.8125 49.9375c-2.0625-1.3125-3.1875-2.1563-5.1563-3.4687C35.3125 44.9688 36.8125 44.125 38.125 42.8125 38.5 42.4375 44.4062 37 44.5 36.5312 44.5938 36.4375 44.5938 36.25 44.4062 36.0625 44.3125 35.9688 44.125 36.0625 43.9375 36.0625s-3.4687 2.1563-9.75 6.4687C33.25 43.1875 32.4062 43.4688 31.6562 43.4688 30.8125 43.4688 29.2188 43 28 42.625 26.5938 42.1562 25.375 41.875 25.4688 41.125 25.5625 40.6562 26.125 40.2812 27.25 39.8125c6.75-3 11.25-4.875 13.5-5.8125 6.4688-2.7188 7.875-3.1875 8.7188-3.1875C49.6562 30.8125 50.125 30.8125 50.4062 31.0938 50.5 31.1875 50.6875 31.4688 50.6875 31.6562 50.7812 32.0312 50.7812 32.3125 50.6875 32.5938z" fill="#fff"/></g><defs><linearGradient id="paint0_linear_3187_37876" x1="80" y1="0" x2="0" y2="80" gradientUnits="userSpaceOnUse"><stop stop-color="#56a8e8"/><stop offset="1" stop-color="#4e9bd4"/></linearGradient><clipPath id="clip0_3187_37876"><rect width="80" height="80" fill="#fff"/></clipPath></defs></svg>