<svg width="80" height="80" viewBox="0 0 80 80" fill="none" xmlns="http://www.w3.org/2000/svg"><g clip-path="url(#clip0_3203_47090)"><path d="M80 0H0V80H80V0z" fill="url(#paint0_linear_3203_47090)"/><path d="M10 40c0-8.25 6.6562-15 15-15h9c1.5938.0 3 1.4062 3 3 0 1.6875-1.4062 3-3 3H25c-5.0625.0-9 4.0312-9 9s3.9375 9 9 9h9c1.5938.0 3 1.4062 3 3 0 1.6875-1.4062 3-3 3H25c-8.3438.0-15-6.6562-15-15zM55 55H46c-1.6875.0-3-1.3125-3-3 0-1.5938 1.3125-3 3-3h9c4.9688.0 9-4.0312 9-9s-4.0312-9-9-9H46c-1.6875.0-3-1.3125-3-3 0-1.5938 1.3125-3 3-3h9c8.25.0 15 6.75 15 15 0 8.3438-6.75 15-15 15zM49 37c1.5938.0 3 1.4062 3 3 0 1.6875-1.4062 3-3 3H31c-1.6875.0-3-1.3125-3-3 0-1.5938 1.3125-3 3-3H49z" fill="#fff"/></g><defs><linearGradient id="paint0_linear_3203_47090" x1="80" y1="0" x2="0" y2="80" gradientUnits="userSpaceOnUse"><stop stop-color="#f2c935"/><stop offset="1" stop-color="#da942c"/></linearGradient><clipPath id="clip0_3203_47090"><rect width="80" height="80" fill="#fff"/></clipPath></defs></svg>